<?xml version="1.0" encoding="UTF-8" standalone="no"?>
<!-- Created with Inkscape (http://www.inkscape.org/) -->
<svg
   xmlns:svg="http://www.w3.org/2000/svg"
   xmlns="http://www.w3.org/2000/svg"
   version="1.0"
   width="400"
   height="400"
   viewBox="0 0 200 200"
   id="svg2446">
  <defs
     id="defs2457" />
  <rect
     width="200"
     height="200"
     x="0"
     y="0"
     id="rect2450"
     style="fill:#ffffff;fill-rule:nonzero" />
  <path
     d="M 5,100 L 5,5.55 L 100,5.55 L 195,5.55 L 195,100 L 195,194.45 L 100,194.45 L 5,194.45 L 5,100 z"
     id="path2473"
     style="fill:#008855;fill-rule:nonzero" />
  <path
     d="M 52.864138,64.995274 C 33.227528,65.175512 15.729878,84.609711 20.999578,110.32513 C 25.016698,129.92813 45.891908,155.42023 82.308698,180.13 C 118.7255,155.42023 139.6007,129.92813 143.61783,110.32513 C 148.88753,84.609711 131.38988,65.175512 111.75327,64.995274 C 101.66111,64.840527 89.037118,70.175987 82.308698,83.064801 C 75.580278,70.175987 62.956298,64.840527 52.864138,64.995274 z"
     id="path2830"
     style="fill:#ffffff;stroke:none" />
  <path
     d="M 68.699,155.41 C 68.699,154.84 70.895,149.68 74.819,141.02 C 75.681,139.12 76.387,137.26 76.387,136.9 C 76.387,136.53 77.622,133.67 79.132,130.54 C 80.643,127.41 81.878,124.71 81.878,124.55 C 81.878,124.38 77.169,124.1 71.413,123.93 L 60.948,123.61 L 64,120.23 C 65.678,118.37 70.264,113.23 74.19,108.82 C 94.244,86.248 98.633,81.565 97.373,84.071 C 96.765,85.279 93.746,91.704 90.664,98.349 C 87.581,104.99 84.59,111.29 84.017,112.34 C 83.445,113.39 82.976,114.48 82.976,114.77 C 82.976,115.06 87.661,115.43 93.386,115.61 L 103.8,115.92 L 100.25,119.79 C 98.299,121.92 93.986,126.85 90.663,130.75 C 87.341,134.65 83.881,138.63 82.975,139.6 C 82.069,140.56 80.136,142.8 78.68,144.56 C 73.776,150.5 68.698,156.02 68.698,155.4 L 68.699,155.41 z"
     id="path2452"
     style="fill:#008855;fill-rule:nonzero" />
  <path
     d="M 146.39,53.759 L 146.39,70.651 L 162.95,70.651 L 162.95,53.759 L 179.5,53.759 L 179.5,37.205 L 162.95,37.205 L 162.95,20.651 L 146.39,20.651 L 146.39,37.205 L 129.5,37.205 L 129.5,53.759 L 146.39,53.759"
     id="path2454"
     style="fill:#ffffff;fill-rule:nonzero" />
</svg>
