<?xml version="1.0" encoding="UTF-8" standalone="no"?>
<svg
     xmlns:svg="http://www.w3.org/2000/svg"
     xmlns="http://www.w3.org/2000/svg"
     version="1.0"
     width="575"
     height="575"
     id="nicermediapages-SVG">
    <defs
         id="defs15" />
    <path
         d="M 574.07,287.5 C 574.07,445.77 445.77,574.07 287.5,574.07 129.23,574.07 0.93,445.77 0.93,287.5 0.93,129.23 129.23,0.93 287.5,0.93 445.77,0.93 574.07,129.23 574.07,287.5 z"
         id="path7"
         style="fill:#ffffff;stroke:#000000;stroke-width:0.5;stroke-linecap:square;stroke-miterlimit:4;" />
    <path
         d="M 449.65,215.68 C 454.03,220.74 486.06,267.78 486.06,269.16 L 244.06,439.37 C 243.42,439.37 240.1,435.43 236.67,430.62 L 230.43,421.86 455.71,264.45 442.06,246.33 217.46,400.28 C 216.57,400.28 213.16,396.51 209.88,391.91 L 203.91,383.53 z M 175.36,386 C 166.66,371.22 172.02,345.5 186.8,331.18 206.97,311.62 197.69,298.04 164.16,298.04 147.44,298.04 143.3,296.97 137.99,291.28 124.61,276.94 126.64,259.72 143.47,244.81 154.97,234.61 159.35,224.46 155.43,217.12 152.37,211.41 156.45,204.83 163.04,204.83 168.36,204.83 174.28,221.67 172.06,230.51 170.99,234.77 164.65,244.19 157.97,251.43 148.7,261.49 146.06,266.61 146.8,273.06 147.74,281.3 148.3,281.55 170.32,283.19 197.4,285.22 202.29,287.17 208.02,298.26 215.5,312.73 213.57,323.41 200.79,338.18 187.51,353.52 184.08,363.46 188.26,374.46 190.65,380.75 190.15,382.68 185.46,385.19 178.62,388.85 177.11,388.97 175.36,386 z M 152.64,398.37 C 146.28,384.42 145.43,366.5 150.45,352.17 160.2,324.37 156.31,319.01 127.05,319.95 107.53,320.57 106.36,320.2 97.921,310.78 85.04,296.39 85.941,284.05 101.16,266.47 107.77,258.83 113.19,250 113.19,246.85 113.19,240.95 122.95,233.63 126.32,237.01 127.37,238.05 128.22,243.45 128.22,249 128.22,256.59 125.24,262.32 116.19,272.14 95.388,294.71 101.17,305.21 133.95,304.38 153.62,303.88 154.95,304.29 162.45,313.21 171.51,323.98 172.36,334.72 165.83,356.23 162.43,367.42 162.11,373.98 164.46,384.44 166.14,391.94 167.13,398.28 166.66,398.53 166.19,398.77 163.65,400.61 161.02,402.61 157.02,405.65 155.64,404.95 152.64,398.37 z M 204.28,429.56 C 194.55,415.94 185.64,403.25 184.49,401.36 183.31,399.43 185.47,395.92 189.44,393.32 196.37,388.78 196.78,389.12 214.98,415.38 225.14,430.06 233.46,443.44 233.46,445.12 233.46,446.81 230.88,449.57 227.72,451.26 222.7,453.95 219.73,451.21 204.28,429.57 z M 193.5,459.69 C 189.53,454.3 180.61,441.83 173.67,431.96 L 161.06,414.01 167.79,408.94 C 174.45,403.92 174.71,404.15 193.47,430.74 203.89,445.52 212.42,458.88 212.42,460.42 212.42,461.96 209.78,464.63 206.57,466.35 201.67,468.97 199.55,467.89 193.5,459.69 z"
         id="path9"
         style="fill:#000000" />
    <path
         d="M 287.49,9.1591 C 218.96,9.1591 156.21,34.107 107.77,75.409 106.5,76.493 105.24,77.584 103.99,78.69 103.49,79.135 102.99,79.586 102.49,80.034 101.42,80.995 100.36,81.963 99.301,82.94 99.02,83.201 98.738,83.46 98.458,83.722 97.208,84.887 95.966,86.065 94.739,87.253 93.331,88.615 91.93,89.986 90.551,91.378 89.198,92.743 87.845,94.11 86.52,95.503 85.146,96.949 83.801,98.434 82.458,99.909 82.304,100.08 82.142,100.24 81.989,100.41 80.827,101.69 79.689,102.98 78.551,104.28 77.309,105.71 76.109,107.15 74.895,108.6 74.848,108.65 74.786,108.7 74.739,108.75 34.243,157.13 9.8329,219.48 9.8329,287.53 9.8329,441.19 134.21,565.87 287.49,565.87 356.17,565.87 419.03,540.8 467.52,499.34 L 467.55,499.37 C 467.94,499.04 468.33,498.71 468.71,498.37 468.87,498.24 469.02,498.1 469.18,497.97 470.12,497.15 471.06,496.33 471.99,495.5 472.73,494.84 473.45,494.19 474.18,493.53 474.39,493.34 474.6,493.16 474.8,492.97 475.77,492.08 476.72,491.18 477.68,490.28 478.54,489.47 479.39,488.66 480.24,487.84 480.36,487.73 480.47,487.61 480.59,487.5 481.67,486.44 482.73,485.38 483.8,484.31 484.12,484 484.43,483.69 484.74,483.37 485.99,482.11 487.23,480.82 488.46,479.53 488.58,479.4 488.71,479.28 488.84,479.15 490.24,477.67 491.65,476.17 493.02,474.65 494.28,473.26 495.51,471.85 496.74,470.44 496.97,470.17 497.2,469.92 497.43,469.65 498.48,468.43 499.52,467.2 500.55,465.97 540.88,417.64 565.18,355.42 565.18,287.53 565.18,133.87 440.77,9.1464 287.49,9.1464 z M 287.49,71.221 C 406.6,71.221 503.27,168.13 503.27,287.53 503.27,338.38 485.75,385.15 456.43,422.09 L 151.93,119.31 C 188.98,89.249 236.14,71.217 287.49,71.217 z M 118.87,152.63 423.43,455.47 C 386.31,485.71 339.01,503.84 287.49,503.84 168.38,503.84 71.74,406.93 71.74,287.53 71.74,236.53 89.376,189.62 118.87,152.62 z"
         id="path11"
         style="fill:#cc0000;stroke:#cc0000;stroke-width:2;stroke-miterlimit:4;" />
</svg>
